<svg width="100" height="100" viewBox="0 0 100 100" fill="none" xmlns="http://www.w3.org/2000/svg">
<g id="EyeFill">
<path id="Vector" d="M65.625 50C65.625 54.144 63.9788 58.1183 61.0485 61.0485C58.1183 63.9788 54.144 65.625 50 65.625C45.856 65.625 41.8817 63.9788 38.9515 61.0485C36.0212 58.1183 34.375 54.144 34.375 50C34.375 45.856 36.0212 41.8817 38.9515 38.9515C41.8817 36.0212 45.856 34.375 50 34.375C54.144 34.375 58.1183 36.0212 61.0485 38.9515C63.9788 41.8817 65.625 45.856 65.625 50Z" fill="#BF4F45"/>
<path id="Vector_2" d="M0 50C0 50 18.75 15.625 50 15.625C81.25 15.625 100 50 100 50C100 50 81.25 84.375 50 84.375C18.75 84.375 0 50 0 50ZM50 71.875C55.8016 71.875 61.3656 69.5703 65.468 65.468C69.5703 61.3656 71.875 55.8016 71.875 50C71.875 44.1984 69.5703 38.6344 65.468 34.532C61.3656 30.4297 55.8016 28.125 50 28.125C44.1984 28.125 38.6344 30.4297 34.532 34.532C30.4297 38.6344 28.125 44.1984 28.125 50C28.125 55.8016 30.4297 61.3656 34.532 65.468C38.6344 69.5703 44.1984 71.875 50 71.875Z" fill="#BF4F45"/>
</g>
</svg>
