<svg width="100" height="100" viewBox="0 0 100 100" fill="none" xmlns="http://www.w3.org/2000/svg">
<g id="EyeSlashFill">
<path id="Vector" d="M67.4375 80.7L57.35 70.6062C53.449 72.001 49.2322 72.2593 45.1901 71.3511C41.1481 70.4429 37.447 68.4055 34.5176 65.4761C31.5882 62.5467 29.5509 58.8457 28.6427 54.8036C27.7345 50.7616 27.9928 46.5447 29.3875 42.6437L16.5125 29.7688C5.8625 39.2375 0 50 0 50C0 50 18.75 84.375 50 84.375C56.0025 84.3542 61.9371 83.1034 67.4375 80.7ZM32.5625 19.3C38.0628 16.8964 43.9975 15.6457 50 15.625C81.25 15.625 100 50 100 50C100 50 94.1313 60.7562 83.4938 70.2375L70.6062 57.35C72.001 53.449 72.2593 49.2322 71.3511 45.1901C70.4429 41.1481 68.4055 37.447 65.4761 34.5176C62.5467 31.5882 58.8457 29.5509 54.8036 28.6427C50.7616 27.7345 46.5447 27.9928 42.6437 29.3875L32.5625 19.3Z" fill="#BF4F45"/>
<path id="Vector_2" d="M34.5312 47.7875C34.1875 50.1894 34.4078 52.6384 35.1748 54.9404C35.9418 57.2425 37.2343 59.3342 38.9501 61.0499C40.6658 62.7657 42.7575 64.0582 45.0596 64.8252C47.3616 65.5922 49.8106 65.8125 52.2125 65.4688L34.5312 47.7875ZM65.4688 52.2125L47.7875 34.525C50.1894 34.1812 52.6384 34.4015 54.9404 35.1685C57.2424 35.9355 59.3342 37.2281 61.0499 38.9438C62.7657 40.6596 64.0582 42.7513 64.8252 45.0533C65.5922 47.3553 65.8125 49.8043 65.4688 52.2062V52.2125ZM85.2875 89.7125L10.2875 14.7125L14.7125 10.2875L89.7125 85.2875L85.2875 89.7125Z" fill="#BF4F45"/>
</g>
</svg>
